<svg xmlns="http://www.w3.org/2000/svg" width="512" height="512" viewBox="0 0 512 512">
  <defs>
    <linearGradient id="g" x1="64" y1="64" x2="448" y2="448" gradientUnits="userSpaceOnUse">
      <stop stop-color="#111827"/>
      <stop offset="1" stop-color="#0b0b0c"/>
    </linearGradient>
  </defs>
  <rect width="512" height="512" rx="120" fill="url(#g)"/>
  <path d="M154 330V182c0-10 8-18 18-18h75c10 0 18 8 18 18v148c0 10-8 18-18 18h-75c-10 0-18-8-18-18Z" fill="#22c55e" opacity="0.95"/>
  <path d="M265 330V226c0-10 8-18 18-18h57c10 0 18 8 18 18v104c0 10-8 18-18 18h-57c-10 0-18-8-18-18Z" fill="#60a5fa" opacity="0.95"/>
  <path d="M178 182h63v28h-63z" fill="#0b0b0c" opacity="0.35"/>
  <path d="M289 226h45v28h-45z" fill="#0b0b0c" opacity="0.35"/>
  <path d="M158 364c48 24 148 28 196-12" fill="none" stroke="#e5e7eb" stroke-width="18" stroke-linecap="round" opacity="0.25"/>
</svg>

